<?xml version="1.0" encoding="UTF-8"?>
<svg data-bbox="-0.002 0.003 2741.224 1755.777" viewBox="0 0 2741.22 1755.78" xmlns="http://www.w3.org/2000/svg" data-type="color">
    <g>
        <path d="M2729.79 352.88c-5.8 5-16.7 14.6-24.1 21.2s-21.3 18.8-30.9 27.2c-9.6 8.3-18.7 16.4-20.4 18-1.6 1.5-10.9 9.5-20.5 17.7s-20 17.2-23 20c-7.6 7-13.5 12.2-29 25.6-7.4 6.3-17.2 15-21.9 19.3-10.7 9.8-44.1 38.4-48.4 41.5-1.8 1.3-4 3.3-4.9 4.5-1.7 2.1-1.8 21.8-1.8 346.4s.1 344.3 1.8 344.3c52.1.4 232.9-.3 233.4-.8.8-.8 1.6-894.2.8-894.2-.3 0-5.3 4.2-11.1 9.3" fill="#3366cc" data-color="1"/>
        <path d="M78.89 528.58q-30 3.6-50.1 22.2c-27.4 25.2-35.8 61.3-22.8 97.2 15.4 42.5 64.4 65.4 109.6 51.1 4.4-1.3 11.5-4.6 16-7.3 15.5-9.3 26.1-20.4 33.9-35.4 6.7-13.1 8.6-21.4 8.7-38.8.2-13-.1-15.5-2.6-24.4-5.4-19.4-16-35.5-30.9-46.6-9.2-6.9-17.3-10.9-29.3-14.5-6.6-2-23.4-4.9-25.5-4.4-.3.1-3.4.5-7 .9" fill="#3366cc" data-color="1"/>
        <path d="M2443.19 603.88c-6.2 5.6-26.5 23.5-55.7 49-10 8.7-22.8 20-28.6 25.1s-17.9 15.8-27 23.6c-9.1 7.9-18.8 16.4-21.5 18.9-2.8 2.5-7.2 6.5-9.8 8.8-8.5 7.5-7.7-18.3-7.7 260.3v249l78.6-.2 78.6-.3.1-319.7c.1-175.9-.1-319.8-.5-319.8s-3.3 2.4-6.5 5.3" fill="#3366cc" data-color="1"/>
        <path d="m1527.69 653.38-76.8.2v65.4c0 56.6-.2 65.7-1.5 66.9-1.3 1.3-5.1 1.5-26.5 1l-25-.6v130.5l25.5-.3c15.7-.2 25.9.1 26.5.7s1.1 57.5 1.2 157.9l.3 157h156l.3-156.4c.1-112.8.5-156.8 1.3-157.7.9-1.1 9.8-1.4 44.8-1.6l43.6-.3v-64.2c0-56.2-.2-64.4-1.5-64.9-.8-.3-20.3-.4-43.3-.3-40.4.3-41.9.3-43.3-1.6-1.2-1.6-1.4-12.5-1.4-66.2 0-60.2-.1-64.3-1.7-65-1-.4-36.3-.7-78.5-.5" fill="#3366cc" data-color="1"/>
        <path d="M1918.89 774.68c-63.4 5.4-121.6 39-161.7 93.4-14.6 19.7-27.7 48.8-34.2 75.6-5.6 23.3-6.6 32.5-6.6 65.4 0 25.4.3 33.2 1.9 43 8.2 52.8 27.7 91.8 64 128 30 29.9 63.6 49.3 103.6 59.9 16.8 4.5 30.6 6 53.5 6 24.1 0 37.7-1.8 57.5-7.8 30-9.1 48-20.6 71.9-45.9 3-3.2 5.9-5.6 6.5-5.4.7.3 1.1 7.3 1.2 21.8.1 11.8.2 22 .3 22.7.1 1 16.1 1.2 78.4 1l78.2-.3.3-221.3.2-221.3-2.2.7c-1.3.4-8.6 6.4-16.3 13.4-7.7 6.9-20.5 18.2-28.5 25s-20.3 17.8-27.4 24.3-16.5 14.5-20.8 17.8c-7.2 5.4-8.4 5.9-12.9 5.9-9.9 0-16.3-5.3-39.1-32-19.8-23.2-38.7-40-54.3-48.2-32.8-17.1-74.4-25.1-113.5-21.7m77.4 135.4c16.3 2.7 26.6 6.7 40.3 15.7 12.6 8.3 27.7 24.9 34 37.1 3.7 7.3 7.9 19.4 9.4 27.2 2.2 11.2 1.7 34.2-.9 44.2-9.3 34.8-32 60.2-63.4 70.9-19.3 6.5-42 7.7-59.9 3.1-20.4-5.3-31.4-11.4-46.2-25.6-16.7-16.1-27.4-36.9-30.8-60-5.2-35.7 14.2-76.6 46.3-97.8 20.4-13.4 46.6-18.8 71.2-14.8" fill="#3366cc" data-color="1"/>
        <path d="M497.89 779.58c-25.8 1.8-44.7 6.8-65.1 17.1-15.4 7.8-22.7 13.4-39.2 30.1-9 9.1-14.4 13.8-15.5 13.6-1.6-.3-1.7-2.6-1.8-26.8l-.1-26.5-79.1-.1-79.2-.2v445.8l78.8-.2 78.7-.3.5-130 .6-130 2.8-10.5c4.1-15.2 9.2-25.3 17.2-33.9 17.6-19 39.6-28.1 65.3-26.8 17.8.9 29.6 4.7 40.8 13.1 8.3 6.3 12.7 11.5 17.3 20.6 4.9 9.8 6.6 15.4 8.4 27 2.6 16.2 2.9 35.7 3 155l.1 115.5 77.5.2c42.6.2 78-.1 78.5-.5 1.4-1 .1-305-1.3-314.7-1.6-11.1-3.9-22.5-6-30.1-3.1-10.8-5.1-15.8-11.8-29-2.8-5.5-6.9-12.8-9.2-16.1-8.9-13.1-27.5-30.2-43.7-40.1-10.3-6.3-30.7-14.2-46-17.9-17.1-4.1-48.3-5.9-71.5-4.3" fill="#3366cc" data-color="1"/>
        <path d="M8.09 787.28c-.4.2-.6 99.6-.4 221 .1 121.5.2 221.6.2 222.5 0 1.7 4.4 1.8 77.9 1.8 61.1 0 78-.3 78.7-1.3.5-.7.7-97.2.4-222.4l-.5-221.3-77.8-.2c-42.7-.2-78-.2-78.5-.1" fill="#3366cc" data-color="1"/>
        <path d="M2160.59 1651.28c-7.4-24.2-24.6-47.9-52-71.3-9.8-8.4-26.5-20.3-37.7-26.7-17.2-9.9-71.6-37.2-91-45.7-4.1-1.8-10.3-4.5-13.8-6.1s-6.5-2.9-6.8-2.9c-.2 0-5.4-2.3-11.5-5-6.1-2.8-19.4-8.5-29.7-12.7s-23.9-9.7-30.2-12.4c-37.6-15.5-50.5-20.8-73.7-29.9-14.2-5.6-37.7-14.9-52.3-20.7s-33.7-13.2-42.5-16.5-23.2-8.9-32-12.5c-26.8-10.9-33.7-13.6-69.5-27.8-19-7.5-39.9-15.8-46.5-18.5s-15.4-6.3-19.5-7.9c-14.6-5.6-54.8-22-72.5-29.6-9.9-4.2-24.7-10.4-33-13.7-8.2-3.3-17.7-7.4-21-9s-12.3-5.6-20-8.8c-13.8-5.7-20.3-8.6-50-22-8.2-3.7-21.7-9.8-30-13.5-8.2-3.7-21.1-9.8-28.5-13.4-7.4-3.7-16.5-8-20.2-9.5-3.7-1.6-7.5-3.7-8.4-4.7-1.6-1.7-1.5-1.9 1.2-3 32.4-13.3 63-41.9 78.7-73.4 17-34.4 20.2-77 8.2-113-6.4-19.5-14.9-33.7-27.2-45.9-21.4-21-48.4-33.5-94.8-44.1-34.2-7.8-43.8-10.4-51.1-14.2-15.2-7.7-20.8-21-15.2-36 5.3-14.4 19.8-20.5 47.8-20.4 23.9.1 50.3 6.6 73.2 18.2 9.7 4.9 8.9 5.6 20.8-18.1 3.5-6.9 8.9-17.2 12-23 6.5-11.9 16-30 23.2-44 2.7-5.2 5.4-10 6-10.7 1.4-1.8.7-2.4-4.9-3.8-2.7-.7-10.2-3-16.8-5-29.1-9.1-61.5-16.1-85.5-18.5-13.7-1.4-61.8-1.4-74 0-36.5 4.1-65.3 13-88.5 27.3-10 6.2-24.6 18.1-32.4 26.3-28.6 30.2-42.4 70.8-39.1 114.3 2.4 30.2 11.1 51 28.5 68.6 10.6 10.6 19.2 16.6 33.6 23.4 13.8 6.5 24.9 10.1 46.1 15.1 52.9 12.4 64.6 16 74 22.3 14 9.4 18.5 24.9 11.6 40-6.8 14.6-19.2 19.7-48.1 19.7-22.6 0-35.1-2.2-61.7-11.1-30.5-10.1-55.3-26.6-86.7-57.6-37.7-37.4-56.3-73.9-56.3-110.7 0-28 12-63.1 34.1-99.8 5.5-9.2 8.1-13.1 17.8-27 13.1-18.6 34.5-44.8 55-67.3 15-16.4 67.8-68.9 83.6-83.1 13.9-12.4 26.6-23.6 31.1-27.4 2.3-1.9 10.2-8.7 17.5-15 7.4-6.4 17.7-15.1 22.9-19.5s10.4-8.7 11.5-9.7c7.3-6.2 23.8-19.7 28.9-23.6 3.4-2.5 9.7-7.6 14-11.2 4.4-3.6 11.4-9.2 15.7-12.5 30.3-23.7 47.8-37.4 50-39 1.4-1.1 10.9-8.3 20.9-16 10.1-7.7 22.4-17 27.4-20.8 5-3.7 12.9-9.6 17.6-13.2 23.6-17.8 29.1-22 36.5-27.2 4.4-3.2 22.9-16.8 41-30.4 18.2-13.5 38-28.2 44-32.5 6.1-4.3 14.4-10.5 18.5-13.6s24.2-18.1 44.5-33.4c89.5-67 134.8-103.9 168-136.8 25.7-25.5 33.9-36.1 43.8-56.6 8-16.5 9.8-23.2 10.4-37.5.6-14.2-.7-21-6.4-32.5-4.4-8.8-15.4-20.5-24.8-26.5-20.3-12.9-48.8-20.2-82-21-9.3-.2-22.1 0-28.3.5-15.7 1.1-26.4 2.7-42.7 6.2-13.5 2.9-16.6 3.7-34.2 9.2-26.1 8.1-64.6 26.6-84.3 40.4-45.3 31.9-76.4 67.7-135.5 155.5-12.1 18-54.1 84.1-66.8 105-3.8 6.1-13.9 22.8-22.5 36.9-8.6 14.2-19.1 31.5-23.2 38.4-4.1 7-10.6 17.9-14.4 24.3s-7.8 13.2-8.9 15.1c-1 1.9-5.1 8.7-9 15-3.8 6.3-7.8 13-8.8 14.7-2.5 4.4-31.1 52.2-58.3 97.3-12 20.1-24.6 41-27.9 46.5s-9.8 16.1-14.5 23.5c-4.6 7.4-11.7 18.7-15.7 25s-10.7 17.1-15 24-11.7 18.3-16.4 25.3-9.9 14.9-11.6 17.5c-12.7 19.9-45.8 66.5-58 81.6-4.4 5.5-10.2 12.7-12.8 16-8.3 10.5-30.5 34.3-39.6 42.4-14.6 13-23.5 18.6-37.1 23.2-14.8 5-29.4-2.8-42.5-22.5-13.1-19.8-24.7-49.7-35.6-92.2-9.4-36.8-20.7-94.8-26.8-137.3-.6-4.1-1.8-12.2-2.6-18-.9-5.8-2.2-15.5-3-21.5-.8-6.1-2.2-16-3-22-2-13.8-2.5-18.1-8.6-72-5.7-50.2-8.8-79.2-12.4-115-1.3-13.8-3.3-32.7-4.4-42-1.1-9.4-2.2-20.2-2.5-24-2.6-28.5-8.8-74.2-12.2-88.3-1.3-5.7-2.4-11.4-2.4-12.6 0-2.7-2.6-6.6-4.5-6.6-10.3 0-17.7 64.6-23 201-7.6 195.1-9.3 624.3-3.5 886 3.1 140.6 12.7 245.6 28.6 313 9 38.1 19.8 52.1 27.8 36.1 6.3-12.2 6-37.5-.9-101.6-1.3-12.7-2.9-28.2-3.5-34.5s-2-18.3-3-26.5c-1.1-8.3-2.6-22-3.5-30.5-.8-8.5-2.3-23.8-3.4-34-9.9-92-13.4-147.8-13.5-213.5-.1-57.1 2-86.6 8.5-120.2 5.4-27.8 9.2-40 18.5-58.8 6.4-12.8 11.1-19.1 21-28.4 7.3-6.8 11.9-9.6 22.4-13.3 8-2.9 24.8-3.5 36.5-1.3 37.1 6.9 88.7 32.4 156.8 77.4 16.8 11 18 12.6 14.5 17.8-1 1.5-5.3 9.5-9.5 17.8-11.9 23.7-27.9 54.8-35.5 69.3-3.8 7.3-6.8 14-6.6 14.9.2 1 1.7 2.1 3.3 2.6 1.7.5 4.4 1.6 6 2.4 1.7.8 8.2 4.1 14.5 7.4 45 22.8 86.7 34.1 137.2 37.1 29.4 1.8 69.8-1.2 86-6.3l6.7-2.1 5 2.7c2.7 1.5 10.4 7.1 16.9 12.4 6.6 5.3 17 13.6 23.2 18.6 6.1 4.9 13.8 11 16.9 13.5 3.2 2.5 11.4 9 18.2 14.5 6.8 5.6 21.6 17.5 32.9 26.6s27.1 21.9 35.1 28.5c8 6.5 19 15.5 24.4 19.9s14 11.4 19 15.5c9.2 7.5 30.6 25.1 63.4 51.9 9.7 7.8 26.1 21.3 36.6 30 10.4 8.6 22.6 18.5 27 22 4.4 3.6 12.4 10.1 17.9 14.5 5.4 4.5 11 9 12.5 10.1 1.4 1.1 13.9 11 27.6 22 20.5 16.5 56.2 44.7 86.5 68.3 13.3 10.4 53.3 40.1 73 54.3 89.1 64.2 140.9 89.7 210.5 103.8 19.2 3.9 34.1 5.3 57 5.3s32.8-1 53-5.7c31.1-7.3 57.9-24.8 69.9-45.8 8.4-14.6 10.5-35.7 5.3-53" fill="#000066" data-color="2"/>
        <path d="M1268.73 1208.25c32.4-13.3 63-41.9 78.7-73.4 17-34.4 20.2-77 8.2-113-6.4-19.5-14.9-33.7-27.2-45.9-21.4-21-48.4-33.5-94.8-44.1-34.2-7.8-43.8-10.4-51.1-14.2-15.2-7.7-20.8-21-15.2-36 5.3-14.4 19.8-20.5 47.8-20.4 23.9.1 50.3 6.6 73.2 18.2 9.7 4.9 8.9 5.6 20.8-18.1 3.5-6.9 8.9-17.2 12-23 6.5-11.9 16-30 23.2-44 2.7-5.2 5.4-10 6-10.7 1.4-1.8.7-2.4-4.9-3.8-2.7-.7-10.2-3-16.8-5-29.1-9.1-61.5-16.1-85.5-18.5-13.7-1.4-61.8-1.4-74 0-36.5 4.1-65.3 13-88.5 27.3-10 6.2-24.6 18.1-32.4 26.3-28.6 30.2-42.4 70.8-39.1 114.3 2.4 30.2 11.1 51 28.5 68.6 10.6 10.6 19.2 16.6 33.6 23.4 13.8 6.5 24.9 10.1 46.1 15.1 52.9 12.4 64.6 16 74 22.3 14 9.4 18.5 24.9 11.6 40-6.8 14.6-19.2 19.7-48.1 19.7-22.6 0-35.1-2.2-61.7-11.1-20.75-6.87-38.87-16.71-58.22-32.06l-7.5 4.19c.38 1.49-.27 2.86-1.48 4.67-1 1.5-5.3 9.5-9.5 17.8-11.9 23.7-27.9 54.8-35.5 69.3-3.8 7.3-6.8 14-6.6 14.9.2 1 1.7 2.1 3.3 2.6 1.7.5 4.4 1.6 6 2.4 1.7.8 8.2 4.1 14.5 7.4 45 22.8 86.7 34.1 137.2 37.1 21.86 1.34 49.78.02 69.33-2.84l62.31-18.65c.37-.24.94-.49 1.76-.82Z" fill="#3366cc" data-color="1"/>
    </g>
</svg>
